/* XPM */
static char * arduino_xpm[] = {
"32 32 257 2",
"  	c None",
". 	c #02797E",
"+ 	c #057C81",
"@ 	c #097D82",
"# 	c #239095",
"$ 	c #43A6AA",
"% 	c #51B1B5",
"& 	c #61BCC0",
"* 	c #5EBCBF",
"= 	c #61BDC0",
"- 	c #51B3B6",
"; 	c #43A8AC",
"> 	c #239196",
", 	c #097E82",
"' 	c #0B7E83",
") 	c #3CA0A4",
"! 	c #59B8BC",
"~ 	c #3FAFB4",
"{ 	c #1FA4A9",
"] 	c #109EA4",
"^ 	c #00989E",
"/ 	c #1FA4AA",
"( 	c #3FB1B5",
"_ 	c #5ABABE",
": 	c #3CA1A6",
"< 	c #0C7F83",
"[ 	c #31989C",
"} 	c #55B4B8",
"| 	c #26A6AB",
"1 	c #01989E",
"2 	c #00999F",
"3 	c #009AA0",
"4 	c #009AA1",
"5 	c #26A7AC",
"6 	c #54B6BB",
"7 	c #319A9E",
"8 	c #087C81",
"9 	c #44A2A7",
"0 	c #31A7AC",
"a 	c #03989E",
"b 	c #009BA1",
"c 	c #009CA2",
"d 	c #009CA3",
"e 	c #009DA3",
"f 	c #03999F",
"g 	c #31ABB0",
"h 	c #47A6AA",
"i 	c #0A7D82",
"j 	c #4CA6AB",
"k 	c #1EA0A5",
"l 	c #009EA4",
"m 	c #009EA5",
"n 	c #009FA5",
"o 	c #1BA3A8",
"p 	c #4CA9AD",
"q 	c #047A7F",
"r 	c #43A1A5",
"s 	c #129A9F",
"t 	c #009FA6",
"u 	c #00A0A6",
"v 	c #00A1A7",
"w 	c #00A1A8",
"x 	c #129FA5",
"y 	c #43A4A8",
"z 	c #369499",
"A 	c #1B9BA0",
"B 	c #00979D",
"C 	c #009DA4",
"D 	c #00A0A7",
"E 	c #00A2A9",
"F 	c #00A3A9",
"G 	c #00A3AA",
"H 	c #00A4AA",
"I 	c #1BA1A7",
"J 	c #379599",
"K 	c #1B8489",
"L 	c #2D999E",
"M 	c #00969C",
"N 	c #00A4AB",
"O 	c #00A5AC",
"P 	c #00A6AC",
"Q 	c #00A6AD",
"R 	c #2C9EA3",
"S 	c #1A8488",
"T 	c #3A989C",
"U 	c #019197",
"V 	c #00A7AD",
"W 	c #00A8AE",
"X 	c #00A8AF",
"Y 	c #3B9A9E",
"Z 	c #1D8488",
"` 	c #1C9095",
" .	c #00959B",
"..	c #40B6BA",
"+.	c #AFE1E3",
"@.	c #EFF9FA",
"#.	c #FFFFFF",
"$.	c #DFF4F4",
"%.	c #9FDDE0",
"&.	c #20B4B9",
"*.	c #00AAB0",
"=.	c #00AAB1",
"-.	c #00ABB1",
";.	c #20B5BA",
">.	c #9FDEE1",
",.	c #DFF4F5",
"'.	c #AFE2E4",
").	c #40B7BC",
"!.	c #1B9499",
"~.	c #1F8589",
"{.	c #359296",
"].	c #008A90",
"^.	c #9FDADC",
"/.	c #EFFAFA",
"(.	c #61CBCE",
"_.	c #01ABB2",
":.	c #01ACB2",
"<.	c #61CBCF",
"[.	c #9FDADD",
"}.	c #009197",
"|.	c #359295",
"1.	c #268C90",
"2.	c #70C6CA",
"3.	c #BFE6E8",
"4.	c #50BCC1",
"5.	c #40B8BC",
"6.	c #60C6C9",
"7.	c #60C7CB",
"8.	c #40B9BE",
"9.	c #50BEC2",
"0.	c #BFE7E8",
"a.	c #70C7CB",
"b.	c #128388",
"c.	c #009399",
"d.	c #EFF9F9",
"e.	c #9FD9DB",
"f.	c #009BA2",
"g.	c #11A9AE",
"h.	c #BFE9EA",
"i.	c #BFE9EB",
"j.	c #11AAB0",
"k.	c #11A8AD",
"l.	c #10A4AA",
"m.	c #13868A",
"n.	c #037D82",
"o.	c #00949A",
"p.	c #40B1B6",
"q.	c #109EA3",
"r.	c #109EA5",
"s.	c #40B4B9",
"t.	c #40B6BC",
"u.	c #11A7AD",
"v.	c #11A9AF",
"w.	c #CFEEF0",
"x.	c #11ABB1",
"y.	c #11A8AE",
"z.	c #71CACE",
"A.	c #10A1A7",
"B.	c #109FA6",
"C.	c #40B3B8",
"D.	c #037F84",
"E.	c #027D82",
"F.	c #40B0B5",
"G.	c #BFE4E6",
"H.	c #00969D",
"I.	c #40B3B7",
"J.	c #41B9BD",
"K.	c #01A2A8",
"L.	c #61C6CA",
"M.	c #61C7CB",
"N.	c #01A3AA",
"O.	c #41B9BE",
"P.	c #40B3B9",
"Q.	c #BFE5E7",
"R.	c #40B2B6",
"S.	c #00989F",
"T.	c #027F85",
"U.	c #027C81",
"V.	c #40AFB3",
"W.	c #109DA2",
"X.	c #40B5B9",
"Y.	c #40B8BD",
"Z.	c #CFEDEF",
"`.	c #70C8CB",
" +	c #10A0A6",
".+	c #40B0B6",
"++	c #027D83",
"@+	c #027A7F",
"#+	c #EFF8F9",
"$+	c #9FD7DA",
"%+	c #00A2A8",
"&+	c #BFE7E9",
"*+	c #BFE8E9",
"=+	c #9FD8DA",
"-+	c #02757A",
";+	c #008D93",
">+	c #70C2C5",
",+	c #50BBC0",
"'+	c #60C4C8",
")+	c #DFF3F4",
"!+	c #61C3C6",
"~+	c #50BCC0",
"{+	c #BFE6E7",
"]+	c #70C3C6",
"^+	c #009298",
"/+	c #026A6F",
"(+	c #01848A",
"_+	c #9FD6D8",
":+	c #019CA3",
"<+	c #019DA3",
"[+	c #9FD7D9",
"}+	c #018A8F",
"|+	c #017D82",
"1+	c #40AEB3",
"2+	c #AFDEE0",
"3+	c #DFF3F3",
"4+	c #20A9AF",
"5+	c #40AFB4",
"6+	c #017F85",
"7+	c #027479",
"8+	c #00898F",
"9+	c #00979E",
"0+	c #0099A0",
"a+	c #00939A",
"b+	c #018D92",
"c+	c #027378",
"d+	c #017E84",
"e+	c #018085",
"f+	c #027075",
"g+	c #018288",
"h+	c #00949B",
"i+	c #00959C",
"j+	c #01868B",
"k+	c #027074",
"l+	c #01878C",
"m+	c #018A90",
"n+	c #02787D",
"o+	c #01888E",
"p+	c #018C91",
"q+	c #02777C",
"r+	c #01858B",
"s+	c #027176",
"t+	c #009196",
"u+	c #009398",
"v+	c #01858A",
"w+	c #015A5E",
"x+	c #02767B",
"y+	c #018086",
"z+	c #00959A",
"A+	c #018C92",
"B+	c #018287",
"C+	c #015B5E",
"D+	c #027E83",
"E+	c #018388",
"F+	c #027E84",
"G+	c #026B70",
"H+	c #01565A",
"                        . . . + + . . .                         ",
"                  . @ # $ % & * * = - ; > , .                   ",
"                ' ) ! ~ { ] ^ ^ ^ ^ ] / ( _ : <                 ",
"            . [ } | 1 ^ 2 3 3 3 4 3 3 3 2 ^ 5 6 7 .             ",
"          8 9 0 a ^ 2 3 b c c d e d c c b 3 2 f g h 8           ",
"        i j k ^ 2 3 b c e l m n n n m l e c b 3 2 o p i         ",
"      q r s ^ 2 3 c e l t u v v w v v u t l e c 3 2 x y q       ",
"      z A B 2 3 c C n D w E F G H G F E w D n C c 3 2 I J       ",
"    K L M ^ 3 c C n v E G N O P Q P O N G E v n C c 3 ^ R S     ",
"    T U ^ 2 b e n v E N O V W X X X W V O N E v n e b 2 1 Y     ",
"  Z `  .^ 3 c ..+.@.#.$.%.&.*.=.-.=.;.>.,.#.@.'.).l c 3 ^ !.~.  ",
"  {.].B 2 3 ^.#.#.#.#.#.#./.(._.:.<./.#.#.#.#.#.#.[.c b 2 }.|.  ",
"  1.}.^ 2 2.#.#.3.4.5.6.$.#.#.<.<.#.#.,.7.8.9.0.#.#.a.b 3 ^ 1.  ",
"  b.c.B ^ d.#.e.3 f.l u g.h.#.#.#.#.i.j.k.5.l.d ^.#.d.3 2 ^ m.  ",
"  n.o.M p.#.#.q.r.s...t.u.v.w.#.#.w.x.y.z.#.a.A.B.#.#.C.^ ^ D.  ",
"  E.c.M F.#.G.H.I.#.#.#.J.K.L.#.#.M.N.O.#.#.#.P.^ Q.#.R.S.B T.  ",
"  U.c. .V.#.#.W.r.X.).Y.u.k.Z.#.#.Z.v.y.z.#.`. +] #.#..+B B ++  ",
"  @+}.o.c.#+#.$+3 C u %+k.&+#.#.#.#.*+y.u.5.l.4 =+#.#+ .M M @+  ",
"  -+;+o.c.>+#.#.Q.,+5.'+)+#.#.!+!+#.#.)+'+).~+{+#.#.]+ .M ^+-+  ",
"  /+(+c.^+}._+#.#.#.#.#.#.d.!+:+<+!+d.#.#.#.#.#.#.[+c.o. .}+/+  ",
"    |+^+^+}.}.1+2+d.#.3+^.4+c f.c d 4+^.3+#.d.2+5+c.c.o. .6+    ",
"    7+8+c.}.}.^+o.M 9+0+0+b c d d d c b 0+S.H. .a+c.c.o.b+c+    ",
"      d+c.c.^+^+a+o.M 9+S.4 d e C e f.0+S.H. .o.a+o. . .e+      ",
"      f+g+o.o.c.o.h+i+9+0+f.e m n C c 0+S.H.i+i+ . .M j+k+      ",
"        7+l+ . . .M B ^ 4 c l n t l e b 0+^ B B M M m+7+        ",
"          n+o+M M B ^ 2 3 c C l l l d b 3 2 ^ B B p+n+          ",
"            q+r+M B ^ 2 3 c c d e d c b 3 2 ^ B o+q+            ",
"              s+g+t+^ ^ 2 3 3 3 4 3 3 3 2 ^ u+v+s+              ",
"                w+x+y+m+z+^ ^ ^ ^ ^ ^ M A+B+x+C+                ",
"                      /+q+E.D+E+E+F+E.q+G+                      ",
"                              H+H+                              ",
"                                                                "};
